<?xml version="1.0" encoding="UTF-8" standalone="no"?>
<svg
   viewBox="0 0 25 25"
   version="1.1"
   id="svg485"
   sodipodi:docname="icon.svg"
   inkscape:version="1.3.2 (091e20e, 2023-11-25, custom)"
   xmlns:inkscape="http://www.inkscape.org/namespaces/inkscape"
   xmlns:sodipodi="http://sodipodi.sourceforge.net/DTD/sodipodi-0.dtd"
   xmlns="http://www.w3.org/2000/svg"
   xmlns:svg="http://www.w3.org/2000/svg">
  <defs
     id="defs489">
    <clipPath
       clipPathUnits="userSpaceOnUse"
       id="clipPath8">
      <g
         id="g10">
        <g
           id="g9">
          <path
             d="M -16.636697,-3.8204692 H 41.675751 V 28.98029 h -58.312448 z"
             id="path8"
             style="stroke-width:0.0455566" />
        </g>
      </g>
    </clipPath>
    <clipPath
       clipPathUnits="userSpaceOnUse"
       id="clipPath11">
      <g
         id="g13">
        <g
           id="g12">
          <path
             d="M -16.636697,-3.8204692 H 41.675751 V 28.98029 h -58.312448 z"
             id="path11"
             style="stroke-width:0.0455566" />
        </g>
      </g>
    </clipPath>
    <clipPath
       clipPathUnits="userSpaceOnUse"
       id="clipPath14">
      <g
         id="g16">
        <g
           id="g15">
          <path
             d="M -16.636697,-3.8204692 H 41.675751 V 28.98029 h -58.312448 z"
             id="path14"
             style="stroke-width:0.0455566" />
        </g>
      </g>
    </clipPath>
    <clipPath
       clipPathUnits="userSpaceOnUse"
       id="clipPath17">
      <g
         id="g19">
        <g
           id="g18">
          <path
             d="M -16.636697,-3.8204692 H 41.675751 V 28.98029 h -58.312448 z"
             id="path17"
             style="stroke-width:0.0455566" />
        </g>
      </g>
    </clipPath>
    <clipPath
       clipPathUnits="userSpaceOnUse"
       id="clipPath20">
      <g
         id="g22">
        <g
           id="g21">
          <path
             d="M -16.636697,-3.8204692 H 41.675751 V 28.98029 h -58.312448 z"
             id="path20"
             style="stroke-width:0.0455566" />
        </g>
      </g>
    </clipPath>
    <clipPath
       clipPathUnits="userSpaceOnUse"
       id="clipPath23">
      <g
         id="g25">
        <g
           id="g24">
          <path
             d="M -16.636697,-3.8204692 H 41.675751 V 28.98029 h -58.312448 z"
             id="path23"
             style="stroke-width:0.0455566" />
        </g>
      </g>
    </clipPath>
  </defs>
  <sodipodi:namedview
     id="namedview487"
     pagecolor="#ffffff"
     bordercolor="#eeeeee"
     borderopacity="1"
     inkscape:showpageshadow="0"
     inkscape:pageopacity="0"
     inkscape:pagecheckerboard="0"
     inkscape:deskcolor="#505050"
     showgrid="false"
     inkscape:zoom="19.20685"
     inkscape:cx="20.904"
     inkscape:cy="15.385136"
     inkscape:window-width="1920"
     inkscape:window-height="1129"
     inkscape:window-x="-8"
     inkscape:window-y="-8"
     inkscape:window-maximized="1"
     inkscape:current-layer="svg485" />
  <path
     id="path45"
     clip-path="url(#clipPath11)"
     style="fill:#ffffff;fill-opacity:1;fill-rule:nonzero;stroke:none;stroke-width:0.0455566"
     d="M 12.519531 0.09765625 C 5.6259806 0.09765625 0.037109375 5.6865709 0.037109375 12.580078 C 0.037109375 19.473585 5.6259806 25.0625 12.519531 25.0625 C 19.413037 25.0625 25.001953 19.473585 25.001953 12.580078 C 25.001953 5.6865709 19.413037 0.09765625 12.519531 0.09765625 z M 12.519531 2.9277344 C 14.46643 2.9277344 16.058594 4.5198972 16.058594 6.4667969 L 16.058594 12.376953 C 16.058594 14.323898 14.46643 15.917969 12.519531 15.917969 C 10.572632 15.917969 8.9804687 14.323898 8.9804688 12.376953 L 8.9804688 6.4667969 C 8.9804688 4.5198972 10.572632 2.9277344 12.519531 2.9277344 z M 7.8222656 12.369141 C 8.0956042 12.36934 8.3703569 12.546809 8.3730469 12.898438 C 8.376737 13.3776 8.4490251 13.78837 8.6523438 14.267578 C 8.6201348 14.191635 8.6942249 14.353262 8.6933594 14.351562 C 8.7187802 14.404589 8.7457845 14.455924 8.7734375 14.507812 C 8.8286975 14.611681 8.8873469 14.71364 8.9511719 14.8125 C 9.0834678 15.01755 9.1610859 15.118213 9.3378906 15.308594 C 10.50063 16.560668 12.33425 16.973534 13.960938 16.431641 C 14.719134 16.179075 15.417847 15.704741 15.933594 15.037109 C 16.388019 14.448793 16.660116 13.66816 16.666016 12.898438 C 16.671392 12.194042 17.765166 12.194725 17.759766 12.898438 C 17.750837 14.067644 17.295467 15.172538 16.513672 16.037109 C 15.651357 16.990687 14.441349 17.566456 13.177734 17.71875 L 13.177734 21.138672 L 15.792969 21.138672 C 16.093642 21.138672 16.339844 21.384873 16.339844 21.685547 C 16.339844 21.986266 16.093642 22.232422 15.792969 22.232422 L 12.519531 22.232422 L 9.2460938 22.232422 C 8.9454205 22.232422 8.6992188 21.986266 8.6992188 21.685547 C 8.6992188 21.384873 8.9454205 21.138672 9.2460938 21.138672 L 11.861328 21.138672 L 11.861328 17.722656 C 11.496756 17.680547 11.13629 17.602644 10.787109 17.486328 C 8.8007097 16.824575 7.2956969 15.034581 7.2792969 12.898438 C 7.2766091 12.546012 7.5489271 12.368941 7.8222656 12.369141 z " />
  <path
     d="m 10.091479,6.4934744 c 0.0154,-1.3192739 1.097003,-2.4280306 2.42803,-2.4280306 0.351788,0 0.35238,-0.5466794 0,-0.5466794 -1.629559,0 -2.9558488,1.3596371 -2.9747092,2.97471 -0.0041,0.3519248 0.5425792,0.352107 0.5466792,0"
     style="fill:#ffffff;fill-opacity:1;fill-rule:nonzero;stroke:none;stroke-width:0.0455566"
     id="path53"
     clip-path="url(#clipPath20)" />
</svg>
