<?xml version="1.0" encoding="UTF-8"?>
<svg version="1.1" xmlns="http://www.w3.org/2000/svg" width="479" height="477">
<path d="M0 0 C63.06257287 -1.33819783 124.31755016 23.9237048 169.92773438 66.93554688 C177.85489197 74.54844649 185.34849342 82.36210539 192.0078125 91.125 C192.42450195 91.66527832 192.84119141 92.20555664 193.27050781 92.76220703 C204.59436467 107.49313242 214.24361883 123.24045626 222.0078125 140.125 C222.3387793 140.84204102 222.66974609 141.55908203 223.01074219 142.29785156 C235.09269252 168.8318956 243.07508148 198.27344432 243.2109375 227.546875 C243.21663757 228.52754944 243.22233765 229.50822388 243.22821045 230.51861572 C243.23761054 232.58938538 243.24417443 234.66016966 243.24804688 236.73095703 C243.25765666 239.82482801 243.28868854 242.91800584 243.3203125 246.01171875 C243.41497686 263.61427462 241.52570618 280.58804975 237.2578125 297.6875 C236.99959717 298.73284912 236.74138184 299.77819824 236.4753418 300.85522461 C228.17789268 333.50080384 213.12516405 363.88702208 192.0078125 390.125 C191.53939941 390.70910645 191.07098633 391.29321289 190.58837891 391.89501953 C179.23335737 405.91020253 166.43198662 419.2563646 152.0078125 430.125 C151.17781738 430.76163574 151.17781738 430.76163574 150.33105469 431.41113281 C141.27323335 438.34579689 131.94516814 444.52729678 122.0078125 450.125 C121.02240479 450.68550049 121.02240479 450.68550049 120.01708984 451.25732422 C105.78210269 459.29127004 90.8705775 465.37497186 75.3203125 470.375 C74.63404785 470.59696045 73.9477832 470.8189209 73.24072266 471.04760742 C70.84168967 471.78953366 68.42867978 472.45721063 66.0078125 473.125 C64.85748032 473.45300095 63.70714813 473.78100189 62.5219574 474.11894226 C51.00799189 477.22427141 40.05692554 477.73074895 28.1796875 477.69140625 C26.21404735 477.69666164 24.24840971 477.70294497 22.28277588 477.71018982 C18.18823271 477.72051808 14.09403867 477.71614465 9.99951172 477.70141602 C4.81477711 477.68426986 -0.36884471 477.70771295 -5.55345535 477.74290562 C-9.60676074 477.76512635 -13.65981012 477.76337882 -17.71315765 477.7551403 C-19.62166308 477.75433363 -21.53018987 477.76094406 -23.43863678 477.77591133 C-37.2655097 477.86774386 -49.69242265 475.89046765 -62.9921875 472.125 C-64.68489777 471.64777245 -64.68489777 471.64777245 -66.4118042 471.16090393 C-68.81674632 470.456118 -71.18518828 469.69043227 -73.5546875 468.875 C-74.40925537 468.58399414 -75.26382324 468.29298828 -76.14428711 467.99316406 C-103.99817113 458.24928906 -129.66580135 443.39395111 -151.9921875 424.125 C-153.14460938 423.13886719 -153.14460938 423.13886719 -154.3203125 422.1328125 C-166.55019211 411.40129562 -178.10011696 399.93563687 -187.74951172 386.81201172 C-188.97083711 385.15398451 -190.21596666 383.51623502 -191.46484375 381.87890625 C-213.79113873 352.14293397 -227.6558066 316.60374767 -233.9921875 280.125 C-234.17765137 279.07642822 -234.36311523 278.02785645 -234.55419922 276.94750977 C-236.39912096 265.10363882 -236.39062142 253.27444179 -236.3671875 241.3125 C-236.36631134 240.22340332 -236.36543518 239.13430664 -236.36453247 238.01220703 C-236.32129002 221.73030254 -235.83043247 206.02474618 -231.9921875 190.125 C-231.74549316 189.09165527 -231.49879883 188.05831055 -231.24462891 186.99365234 C-227.62824578 172.29945966 -222.84140402 158.07578361 -216.9921875 144.125 C-216.68732422 143.39410156 -216.38246094 142.66320312 -216.06835938 141.91015625 C-208.98297454 125.22966062 -199.1727247 109.37379273 -187.9921875 95.125 C-187.29996094 94.24199219 -186.60773438 93.35898438 -185.89453125 92.44921875 C-166.78914908 68.62645827 -144.38640665 48.54979396 -117.9921875 33.125 C-117.3935791 32.76696289 -116.7949707 32.40892578 -116.17822266 32.04003906 C-80.90978635 10.97580334 -40.72926441 1.70148363 0 0 Z M-41.9921875 73.125 C-42.58128906 73.62128906 -43.17039063 74.11757812 -43.77734375 74.62890625 C-55.567701 85.34497127 -63.3440791 101.97243472 -64.12640858 117.84885216 C-64.13068206 118.78120501 -64.13495554 119.71355785 -64.13935852 120.67416382 C-64.14651382 121.75312927 -64.15366913 122.83209473 -64.16104126 123.9437561 C-64.16373016 125.11264374 -64.16641907 126.28153137 -64.16918945 127.48583984 C-64.17576065 128.72897949 -64.18233185 129.97211914 -64.18910217 131.25292969 C-64.20879796 135.3639348 -64.2205015 139.47490093 -64.23046875 143.5859375 C-64.23452079 145.00892785 -64.23863784 146.43191801 -64.24281883 147.85490799 C-64.26185692 154.54833822 -64.27608638 161.24175757 -64.2844308 167.93520963 C-64.29417439 175.62120897 -64.32042386 183.30691811 -64.36093169 190.99281538 C-64.39127527 196.95831979 -64.4059171 202.92374194 -64.40921181 208.88932192 C-64.41154313 212.44009295 -64.4202478 215.99055358 -64.44567299 219.54124069 C-64.62037068 245.28475817 -62.46614812 266.20579721 -43.6796875 285.5 C-28.59816544 299.80811067 -11.64010238 304.68435961 8.625 304.40234375 C26.71653022 303.76638755 42.29525494 294.27967471 54.6328125 281.5625 C70.8071346 262.81173721 71.63529158 241.44764568 71.54511452 217.77882004 C71.53483966 214.22826745 71.54441966 210.67775191 71.55065918 207.12719727 C71.55789417 201.1696824 71.54845809 195.21236722 71.52929688 189.25488281 C71.507536 182.4109919 71.51459035 175.567578 71.5366025 168.72369862 C71.55487605 162.80041642 71.55725705 156.87727606 71.54684782 150.95397472 C71.54067789 147.43693945 71.5395941 143.9201268 71.55299377 140.40310669 C71.63272677 116.19960358 69.80103101 94.63407379 52.42529297 76.27612305 C39.97981489 63.87092846 24.05589424 55.99310348 6.35961914 55.79516602 C-12.29660228 55.91654343 -27.80350179 60.53503944 -41.9921875 73.125 Z M-94.9921875 240.125 C-97.58234532 243.82776856 -97.16440378 247.62327278 -96.8671875 251.9375 C-96.81570557 252.69087646 -96.76422363 253.44425293 -96.71118164 254.22045898 C-94.74688279 278.06479503 -82.13530548 299.18288793 -64.7265625 315.2109375 C-49.84289021 327.67970932 -28.93364037 339.125 -8.9921875 339.125 C-8.9921875 360.905 -8.9921875 382.685 -8.9921875 405.125 C-34.0546875 404.9375 -34.0546875 404.9375 -41.92993164 404.85473633 C-44.00406429 404.84596938 -46.07820212 404.83832594 -48.15234375 404.83203125 C-49.21771362 404.81668335 -50.2830835 404.80133545 -51.3807373 404.78552246 C-57.3564371 404.78342842 -61.77080041 405.10404514 -66.9921875 408.125 C-69.66651928 412.13649768 -69.81121161 415.40940661 -68.9921875 420.125 C-66.31703319 423.69187241 -64.3266121 425.35480729 -59.9921875 426.125 C-58.23775459 426.21667927 -56.48022772 426.25553456 -54.72340393 426.25871277 C-53.1230983 426.26511024 -53.1230983 426.26511024 -51.49046326 426.27163696 C-49.74250206 426.27095718 -49.74250206 426.27095718 -47.95922852 426.27026367 C-46.11234436 426.27530159 -46.11234436 426.27530159 -44.22814941 426.28044128 C-40.85417236 426.28831316 -37.48025684 426.29161881 -34.10627484 426.29225707 C-31.99759931 426.29296824 -29.88893021 426.29510382 -27.78025627 426.29775429 C-20.42177801 426.30700272 -13.06331786 426.31108973 -5.70483398 426.31030273 C1.15139223 426.30970181 8.0075398 426.32025771 14.86374611 426.3360464 C20.75345652 426.3491255 26.64314124 426.35448649 32.53286606 426.35384732 C36.0491192 426.35359248 39.56530241 426.3564363 43.08154106 426.36702538 C47.00287827 426.37851238 50.92410768 426.37395725 54.84545898 426.36791992 C56.59038383 426.37634918 56.59038383 426.37634918 58.37055969 426.38494873 C59.44024994 426.38075424 60.50994019 426.37655975 61.61204529 426.37223816 C63.00215144 426.37305531 63.00215144 426.37305531 64.42034054 426.37388897 C68.60165472 425.97168829 71.2745263 424.8186491 74.3203125 421.9375 C76.51249548 418.28386171 76.6711564 416.32617804 76.0078125 412.125 C74.34795545 409.19236719 72.43769585 406.63253197 69.15692139 405.46803284 C66.69443427 405.07497972 64.36662083 405.00529998 61.87207031 405.01147461 C60.83711426 405.01159546 59.8021582 405.01171631 58.73583984 405.01184082 C57.11476318 405.01951477 57.11476318 405.01951477 55.4609375 405.02734375 C53.96312744 405.02885437 53.96312744 405.02885437 52.43505859 405.03039551 C48.70929819 405.03562276 44.98355418 405.04958403 41.2578125 405.0625 C28.7590625 405.0934375 28.7590625 405.0934375 16.0078125 405.125 C16.0078125 383.345 16.0078125 361.565 16.0078125 339.125 C22.4428125 338.135 22.4428125 338.135 29.0078125 337.125 C32.03022486 336.34969658 34.88565819 335.56549183 37.8203125 334.5625 C38.5738501 334.30637939 39.3273877 334.05025879 40.10375977 333.78637695 C52.85924772 329.23208462 64.00325238 322.2345835 74.0078125 313.125 C74.77351562 312.45210938 75.53921875 311.77921875 76.328125 311.0859375 C93.99356142 294.65154194 102.22260649 272.08868739 104.1875 248.53515625 C103.98069531 244.61036284 103.15449759 242.40227257 101.0078125 239.125 C98.14715611 237.04985172 95.9719607 236.88223084 92.5078125 237.25 C91.755 237.31445312 91.0021875 237.37890625 90.2265625 237.4453125 C87.04750029 238.41918015 85.94359946 239.38473015 84.0078125 242.125 C83.22323528 245.34115005 82.94791305 248.58430773 82.6328125 251.875 C80.94363497 265.90751565 77.15279101 278.05674765 68.0078125 289.125 C67.02361328 290.36830078 67.02361328 290.36830078 66.01953125 291.63671875 C52.40922281 307.88449099 32.04940907 316.77594097 11.21875 318.78125 C-10.73475595 320.47650142 -32.43085833 314.44859608 -49.8046875 300.75 C-66.86776751 286.03618463 -74.53852926 268.89676452 -76.3046875 246.62109375 C-77.0836161 242.66006477 -78.07583349 240.88704956 -80.9921875 238.125 C-86.04150507 236.24618416 -90.86826896 236.50095038 -94.9921875 240.125 Z " fill="#FEFEFE" transform="translate(235.9921875,-0.125)"/>
<path d="M0 0 C1.74609375 1.30078125 1.74609375 1.30078125 3 3 C2.9375 6.5625 2.9375 6.5625 2 10 C-1.24719182 12.29529634 -4.62027946 12.38299941 -8.5 12.75 C-20.48920174 14.379238 -29.97816729 19.97890785 -38 29 C-44.63865878 37.94340069 -47.18155003 47.27573135 -48.5625 58.1875 C-49 61 -49 61 -51 63 C-54.5 63.3125 -54.5 63.3125 -58 63 C-61.30665926 58.04001111 -60.45444614 52.8374242 -59.53515625 47.09765625 C-56.05359831 31.42034507 -47.27468593 18.36542149 -34.0078125 9.234375 C-23.68992816 2.89108424 -12.26676314 -1.18710611 0 0 Z " fill="#FFFFFF" transform="translate(242,66)"/>
</svg>
