<?xml version="1.0" encoding="UTF-8" standalone="no"?>
<svg
   clip-rule="evenodd"
   fill-rule="evenodd"
   stroke-linejoin="round"
   stroke-miterlimit="2"
   version="1.1"
   viewBox="6.4552e-5 0 500 500"
   xml:space="preserve"
   id="svg3"
   sodipodi:docname="icon_monochrome.svg"
   inkscape:version="1.3.2 (091e20e, 2023-11-25, custom)"
   xmlns:inkscape="http://www.inkscape.org/namespaces/inkscape"
   xmlns:sodipodi="http://sodipodi.sourceforge.net/DTD/sodipodi-0.dtd"
   xmlns="http://www.w3.org/2000/svg"
   xmlns:svg="http://www.w3.org/2000/svg"><defs
   id="defs3">
        
    
        
    </defs><sodipodi:namedview
   id="namedview3"
   pagecolor="#ffffff"
   bordercolor="#000000"
   borderopacity="0.25"
   inkscape:showpageshadow="2"
   inkscape:pageopacity="0.0"
   inkscape:pagecheckerboard="0"
   inkscape:deskcolor="#d1d1d1"
   inkscape:zoom="1.774"
   inkscape:cx="250"
   inkscape:cy="250"
   inkscape:window-width="1920"
   inkscape:window-height="1129"
   inkscape:window-x="-8"
   inkscape:window-y="-8"
   inkscape:window-maximized="1"
   inkscape:current-layer="svg3" />
    
    <path
   id="path2"
   style="stroke-width:0.48835;fill:#ffffff;fill-opacity:1"
   d="M 112.51374 0 C 50.381032 0 0.011783302 50.369244 0.011783302 112.50195 L 0.011783302 387.5 C 0.011783302 449.63271 50.381032 500.00195 112.51374 500.00195 L 387.51178 500.00195 C 449.64449 500.00195 500.01374 449.63271 500.01374 387.5 L 500.01374 112.50195 C 500.01374 50.369244 449.64449 -9.4738937e-15 387.51178 0 L 112.51374 0 z M 156.55866 210.49219 C 178.51095 210.49219 196.37116 228.16591 196.37116 249.89258 C 196.37116 271.61339 178.51095 289.28906 156.55866 289.28906 C 134.60442 289.28906 116.73835 271.61339 116.73835 249.89258 C 116.73835 228.16591 134.60442 210.49219 156.55866 210.49219 z M 74.175846 210.50391 C 89.516368 210.50391 98.333997 220.67084 98.705143 221.10547 L 99.95319 222.57422 L 88.488346 230.23828 L 87.494205 229.50195 C 85.639942 228.13067 80.625477 224.94531 74.175846 224.94531 C 66.521943 224.94531 61.949283 229.14494 61.949283 233.20312 C 61.949283 234.93285 61.948244 238.52671 76.367252 243.0625 C 83.776491 245.389 88.747096 247.69589 92.523502 250.54688 C 98.15173 254.79161 101.00592 260.23249 101.00592 266.69727 C 101.00592 272.72448 98.186787 278.60195 93.269596 282.82617 C 88.330429 287.05723 81.554806 289.39453 74.181705 289.39453 C 58.839717 289.39453 50.022576 279.22174 49.658268 278.79492 L 48.404361 277.32617 L 59.875065 269.66406 L 60.869205 270.39648 C 62.715166 271.76581 67.718888 274.95117 74.181705 274.95117 C 81.835607 274.95117 86.412174 270.7574 86.412174 266.69727 C 86.412174 264.96851 86.413213 261.37173 71.996158 256.83789 C 64.583502 254.50846 59.61485 252.2045 55.837955 249.35352 C 50.207774 245.10878 47.349674 239.67278 47.349674 233.20312 C 47.349674 227.17493 50.170764 221.29746 55.089908 217.07422 C 60.025168 212.8373 66.801279 210.50391 74.175846 210.50391 z M 425.836 210.67773 C 441.17507 210.67773 449.99611 220.85053 450.35944 221.2793 L 451.60944 222.75 L 440.1446 230.41602 L 439.1485 229.67773 C 437.29668 228.31036 432.30078 225.125 425.836 225.125 C 418.17869 225.125 413.60163 229.31975 413.60163 233.37695 C 413.60163 235.10767 413.60156 238.70151 428.02155 243.23633 C 435.43567 245.56185 440.40579 247.86972 444.18171 250.7207 C 449.81043 254.96642 452.66022 260.40535 452.66022 266.87109 C 452.66022 272.90124 449.84255 278.77676 444.92389 282.99805 C 439.98961 287.23692 433.21301 289.57031 425.836 289.57031 C 410.49597 289.57031 401.68176 279.40338 401.31452 278.9707 L 400.06061 277.49805 L 411.52936 269.83984 L 412.5235 270.57031 C 414.37533 271.9416 419.38882 275.12891 425.836 275.12891 C 433.49235 275.12891 438.07038 270.93026 438.07038 266.87109 C 438.07038 265.14234 438.06946 261.54555 423.65046 257.01758 C 416.23535 254.68424 411.26817 252.38028 407.4903 249.5293 C 401.86158 245.28163 399.01569 239.84759 399.01569 233.37695 C 399.01569 227.35561 401.83141 221.4752 406.74811 217.24805 C 411.68631 213.01113 418.46193 210.67773 425.836 210.67773 z M 343.45514 210.78516 C 365.41524 210.78516 383.27741 228.45986 383.27741 250.18359 C 383.27741 271.90734 365.41524 289.58203 343.45514 289.58203 C 321.50578 289.58203 303.6446 271.90734 303.6446 250.18359 C 303.6446 228.45986 321.50578 210.78516 343.45514 210.78516 z M 218.8985 211.38281 L 266.89655 255.66016 L 266.89655 213.48633 L 281.12116 213.48633 L 281.12116 288.74609 L 233.12116 244.53516 L 233.12116 286.45312 L 218.8985 286.45312 L 218.8985 211.38281 z M 156.55866 224.6582 C 142.63483 224.6582 131.31452 235.9795 131.31452 249.89844 C 131.31452 263.81542 142.63483 275.13672 156.55866 275.13672 C 170.48052 275.13672 181.80866 263.81542 181.80866 249.89844 C 181.80866 235.9795 170.48052 224.6582 156.55866 224.6582 z M 343.45319 224.94922 C 329.5323 224.94922 318.21296 236.26955 318.21296 250.18359 C 318.21296 264.09863 329.5323 275.42383 343.45319 275.42383 C 357.37409 275.42383 368.70124 264.09863 368.70124 250.18359 C 368.70124 236.26955 357.37409 224.94922 343.45319 224.94922 z " />
    
</svg>
