<?xml version="1.0" encoding="UTF-8" standalone="no"?>
<svg
   viewBox="0 0 30 30"
   version="1.1"
   id="svg6"
   sodipodi:docname="icon.svg"
   inkscape:version="1.3.2 (091e20e, 2023-11-25, custom)"
   width="30"
   height="30"
   xmlns:inkscape="http://www.inkscape.org/namespaces/inkscape"
   xmlns:sodipodi="http://sodipodi.sourceforge.net/DTD/sodipodi-0.dtd"
   xmlns="http://www.w3.org/2000/svg"
   xmlns:svg="http://www.w3.org/2000/svg">
  <defs
     id="defs6" />
  <sodipodi:namedview
     id="namedview6"
     pagecolor="#ffffff"
     bordercolor="#000000"
     borderopacity="0.25"
     inkscape:showpageshadow="2"
     inkscape:pageopacity="0.0"
     inkscape:pagecheckerboard="0"
     inkscape:deskcolor="#d1d1d1"
     inkscape:zoom="20.625"
     inkscape:cx="20"
     inkscape:cy="20"
     inkscape:window-width="1920"
     inkscape:window-height="1129"
     inkscape:window-x="-8"
     inkscape:window-y="-8"
     inkscape:window-maximized="1"
     inkscape:current-layer="surface1" />
  <g
     id="surface1">
    <path
       id="path2"
       style="fill:#ffffff;fill-opacity:1;fill-rule:nonzero;stroke:none"
       d="M 10.967448,3.0644176 V 25.962855 c 3.019525,0 8.781258,0.699217 12.699219,-0.398438 1.761715,-0.617185 3.218752,-1.710939 4.125,-3.355469 0.753904,-1.613277 1.011717,-3.683597 0.40625,-5.382812 -0.566404,-1.472654 -1.656252,-2.398438 -3.0625,-3.042969 -0.09375,-0.04297 -0.179688,-0.08203 -0.269531,-0.121093 0.546873,-0.425782 1.042969,-0.878909 1.5,-1.398438 0.960935,-1.359373 1.097656,-2.8476596 0.984375,-4.4531246 -0.152344,-0.964842 -0.769532,-2.171877 -1.507813,-2.8125 -0.05859,-0.042969 -0.117187,-0.089844 -0.175781,-0.132813 C 23.623702,3.064422 23.623674,3.0644176 10.967448,3.0644176 Z m 8.015625,5.0546878 c 0.972655,-0.01172 1.726563,0.09766 2.445313,0.800781 0.25,0.621093 0.23828,1.2656256 0.01172,1.8945306 -0.375,0.535157 -0.703126,0.777344 -1.347657,0.902344 -0.335936,0.04687 -0.656251,0.05859 -0.996093,0.05469 H 18.756512 18.33073 c -0.67578,-0.0039 -0.675781,-0.0039 -1.363281,-0.0078 V 8.1620894 c 0.761718,-0.01563 0.761719,-0.01563 1.535157,-0.03125 0.160155,-0.0039 0.316406,-0.0078 0.480468,-0.01172 z m 0.908203,8.5058586 c 0.903411,0.0023 1.727053,0.08008 2.482422,0.681641 0.417969,0.554685 0.472657,1.074221 0.394531,1.757812 -0.175779,0.625 -0.445312,1.046875 -1,1.398438 -0.929685,0.437498 -1.968752,0.332031 -2.964843,0.320312 -0.605469,-0.0078 -1.210938,-0.01172 -1.835938,-0.01953 v -4.101562 c 0.636719,-0.0078 1.273438,-0.01563 1.929688,-0.02344 0.199219,-0.0039 0.398437,-0.0078 0.601562,-0.01172 0.132324,-0.0015 0.263521,-0.0023 0.392578,-0.002 z" />
    <path
       style="fill:#ffffff;fill-opacity:1;fill-rule:nonzero;stroke:none"
       d="m 2.2682287,13.162074 c 1.714844,0 3.429688,0 5.199219,0 0,4.226562 0,8.449218 0,12.800781 -1.714843,0 -3.433593,0 -5.199219,0 0,-4.222657 0,-8.445313 0,-12.800781 z m 0,0"
       id="path3" />
    <path
       style="fill:#ffffff;fill-opacity:1;fill-rule:nonzero;stroke:none"
       d="m 6.3424477,5.3261364 c 0.792969,0.488281 1.234375,1.171875 1.523438,2.039062 0.128906,1.027344 -0.140625,1.792969 -0.761719,2.617188 -0.570312,0.6210936 -1.179688,0.8906246 -2.019531,0.9335936 -0.773438,0.01563 -1.371094,-0.113282 -2.019531,-0.550782 -0.089844,-0.0625 -0.183594,-0.121093 -0.28125,-0.183593 -0.613282,-0.6132806 -0.941407,-1.3593746 -0.96875,-2.2304686 0.015624,-0.8125 0.296874,-1.457031 0.8125,-2.082031 0.980468,-0.929688 2.5,-1.109375 3.714843,-0.542969 z m 0,0"
       id="path4" />
  </g>
</svg>
