<?xml version="1.0" encoding="UTF-8" standalone="no"?>
<svg
   viewBox="0 0 26.700001 23.118"
   version="1.1"
   id="svg6"
   sodipodi:docname="icon_monochrome.svg"
   inkscape:version="1.3.2 (091e20e, 2023-11-25, custom)"
   width="53.400002"
   height="46.236"
   xmlns:inkscape="http://www.inkscape.org/namespaces/inkscape"
   xmlns:sodipodi="http://sodipodi.sourceforge.net/DTD/sodipodi-0.dtd"
   xmlns="http://www.w3.org/2000/svg"
   xmlns:svg="http://www.w3.org/2000/svg">
  <defs
     id="defs6" />
  <sodipodi:namedview
     id="namedview6"
     pagecolor="#ffffff"
     bordercolor="#000000"
     borderopacity="0.25"
     inkscape:showpageshadow="2"
     inkscape:pageopacity="0.0"
     inkscape:pagecheckerboard="0"
     inkscape:deskcolor="#d1d1d1"
     inkscape:zoom="14.584077"
     inkscape:cx="25.747258"
     inkscape:cy="19.987552"
     inkscape:window-width="1920"
     inkscape:window-height="1129"
     inkscape:window-x="-8"
     inkscape:window-y="-8"
     inkscape:window-maximized="1"
     inkscape:current-layer="surface1" />
  <g
     id="surface1">
    <path
       id="path2"
       style="fill:#ffffff;fill-opacity:1;fill-rule:nonzero;stroke:none"
       d="m 9.1523433,0 v 22.898437 c 3.0195247,0 8.7812577,0.699217 12.6992187,-0.398438 1.761715,-0.617185 3.218752,-1.710939 4.125,-3.355469 0.753904,-1.613277 1.011717,-3.683597 0.40625,-5.382812 -0.566404,-1.472654 -1.656252,-2.398438 -3.0625,-3.042969 -0.09375,-0.04297 -0.179688,-0.08203 -0.269531,-0.121093 0.546873,-0.425782 1.042969,-0.8789086 1.5,-1.3984376 0.960935,-1.359373 1.097656,-2.8476596 0.984375,-4.4531246 -0.152344,-0.964842 -0.769532,-2.171877 -1.507813,-2.8125 -0.05859,-0.042969 -0.117187,-0.089844 -0.175781,-0.132813 C 21.808597,4.4e-6 21.808569,0 9.1523433,0 Z m 8.0156247,5.0546878 c 0.972655,-0.01172 1.726563,0.09766 2.445313,0.800781 0.25,0.621093 0.23828,1.2656256 0.01172,1.8945306 -0.375,0.535157 -0.703126,0.777344 -1.347657,0.902344 -0.335936,0.04687 -0.656251,0.05859 -0.996093,0.05469 h -0.339844 -0.425782 c -0.67578,-0.0039 -0.675781,-0.0039 -1.363281,-0.0078 V 5.0976718 c 0.761718,-0.01563 0.761719,-0.01563 1.535157,-0.03125 0.160155,-0.0039 0.316406,-0.0078 0.480468,-0.01172 z m 0.908203,8.5058582 c 0.903411,0.0023 1.727053,0.08008 2.482422,0.681641 0.417969,0.554685 0.472657,1.074221 0.394531,1.757812 -0.175779,0.625 -0.445312,1.046875 -1,1.398438 -0.929685,0.437498 -1.968752,0.332031 -2.964843,0.320312 -0.605469,-0.0078 -1.210938,-0.01172 -1.835938,-0.01953 v -4.101562 c 0.636719,-0.0078 1.273438,-0.01563 1.929688,-0.02344 0.199219,-0.0039 0.398437,-0.0078 0.601562,-0.01172 0.132324,-0.0015 0.263521,-0.0023 0.392578,-0.002 z" />
    <path
       style="fill:#ffffff;fill-opacity:1;fill-rule:nonzero;stroke:none;stroke-width:0.999979"
       d="m 0.453,10.28 c 1.7147718,0 3.4295435,0 5.199,0 0,4.226562 0,8.449218 0,12.800781 -1.7147708,0 -3.4334484,0 -5.199,0 0,-4.222657 0,-8.445313 0,-12.800781 z m 0,0"
       id="path3" />
    <path
       style="fill:#ffffff;fill-opacity:1;fill-rule:nonzero;stroke:none"
       d="m 4.577343,2.2612823 c 0.792969,0.488281 1.234375,1.171875 1.523438,2.039062 0.128906,1.027344 -0.140625,1.792969 -0.761719,2.617188 C 4.76875,7.5386259 4.159374,7.8081569 3.319531,7.8511259 2.546093,7.8667559 1.948437,7.7378439 1.3,7.3003439 1.210156,7.2378439 1.116406,7.1792509 1.01875,7.1167509 0.405468,6.5034703 0.077343,5.7573763 0.05,4.8862823 c 0.015624,-0.8125 0.296874,-1.457031 0.8125,-2.082031 0.980468,-0.929688 2.5,-1.109375 3.714843,-0.542969 z m 0,0"
       id="path4" />
  </g>
</svg>
