<?xml version="1.0" encoding="UTF-8" standalone="no"?>
<svg
   viewBox="0 0 20 20"
   fill="none"
   version="1.1"
   id="svg1"
   sodipodi:docname="icon_monochrome.svg"
   width="20"
   height="20"
   inkscape:version="1.3.2 (091e20e, 2023-11-25, custom)"
   xmlns:inkscape="http://www.inkscape.org/namespaces/inkscape"
   xmlns:sodipodi="http://sodipodi.sourceforge.net/DTD/sodipodi-0.dtd"
   xmlns="http://www.w3.org/2000/svg"
   xmlns:svg="http://www.w3.org/2000/svg">
  <defs
     id="defs1" />
  <sodipodi:namedview
     id="namedview1"
     pagecolor="#ffffff"
     bordercolor="#000000"
     borderopacity="0.25"
     inkscape:showpageshadow="2"
     inkscape:pageopacity="0.0"
     inkscape:pagecheckerboard="0"
     inkscape:deskcolor="#d1d1d1"
     inkscape:zoom="36.958333"
     inkscape:cx="12"
     inkscape:cy="12"
     inkscape:window-width="1920"
     inkscape:window-height="1129"
     inkscape:window-x="-8"
     inkscape:window-y="-8"
     inkscape:window-maximized="1"
     inkscape:current-layer="svg1" />
  <path
     fill-rule="evenodd"
     clip-rule="evenodd"
     d="M 10,20 C 15.5228,20 20,15.5228 20,10 20,4.47715 15.5228,0 10,0 4.47715,0 0,4.47715 0,10 0,15.5228 4.47715,20 10,20 Z M 8.1818,12.6136 12.6136,9.8864 8.1818,7.38636 Z M 4.77273,10 c 0,-2.88636 2.34091,-5.22727 5.22727,-5.22727 2.8864,0 5.2273,2.34091 5.2273,5.22727 0,2.8864 -2.3409,5.2273 -5.2273,5.2273 C 7.11364,15.2273 4.77273,12.8864 4.77273,10 Z M 10,5.22727 c 2.625,0 4.7727,2.13637 4.7727,4.77273 0,2.6364 -2.1363,4.7727 -4.7727,4.7727 C 7.36364,14.7727 5.22727,12.6364 5.22727,10 5.22727,7.36364 7.375,5.22727 10,5.22727 Z"
     fill="#ff0000"
     id="path1"
     style="fill:#ffffff;fill-opacity:1" />
</svg>
