<?xml version="1.0" encoding="UTF-8" standalone="no"?>
<svg
   version="1.1"
   id="Layer_1"
   x="0px"
   y="0px"
   viewBox="0 0 122.88 122.88"
   style="enable-background:new 0 0 122.88 122.88"
   xml:space="preserve"
   sodipodi:docname="icon_monochrome.svg"
   inkscape:version="1.3.2 (091e20e, 2023-11-25, custom)"
   xmlns:inkscape="http://www.inkscape.org/namespaces/inkscape"
   xmlns:sodipodi="http://sodipodi.sourceforge.net/DTD/sodipodi-0.dtd"
   xmlns="http://www.w3.org/2000/svg"
   xmlns:svg="http://www.w3.org/2000/svg"><defs
     id="defs2" /><sodipodi:namedview
     id="namedview2"
     pagecolor="#ffffff"
     bordercolor="#000000"
     borderopacity="0.25"
     inkscape:showpageshadow="2"
     inkscape:pageopacity="0.0"
     inkscape:pagecheckerboard="0"
     inkscape:deskcolor="#d1d1d1"
     inkscape:zoom="7.2184246"
     inkscape:cx="61.439999"
     inkscape:cy="61.439999"
     inkscape:window-width="1920"
     inkscape:window-height="1129"
     inkscape:window-x="-8"
     inkscape:window-y="-8"
     inkscape:window-maximized="1"
     inkscape:current-layer="Layer_1" /><style
     type="text/css"
     id="style1"><![CDATA[
	.st0{fill:#14D8CC;}
	.st1{fill:#1C203C;}
]]></style><path
     id="path1"
     class="st1"
     d="M 18.429688 0 C 8.2496977 0 0 8.2496977 0 18.429688 L 0 104.44922 C 0 114.62921 8.2496977 122.88086 18.429688 122.88086 L 104.44922 122.88086 C 114.62921 122.88086 122.88086 114.62921 122.88086 104.44922 L 122.88086 18.429688 C 122.88086 8.2496977 114.62921 0 104.44922 0 L 18.429688 0 z M 71.519531 36.480469 L 105.83984 36.480469 C 105.83984 36.480469 107.2793 36.479923 107.2793 37.919922 L 107.2793 67.439453 C 107.2793 67.439453 107.27984 68.880859 105.83984 68.880859 L 72.960938 68.880859 L 72.960938 77.039062 C 72.960938 77.039062 72.95953 78.480469 71.519531 78.480469 L 13.439453 78.480469 C 13.439453 78.480469 12 78.479061 12 77.039062 L 12 47.519531 C 12 47.519531 11.999455 46.080078 13.439453 46.080078 L 70.080078 46.080078 L 70.080078 37.919922 C 70.080078 37.919922 70.079533 36.480469 71.519531 36.480469 z M 80.400391 46.080078 L 80.400391 48.720703 L 82.320312 48.720703 L 82.320312 56.880859 L 80.160156 56.880859 L 80.160156 59.519531 L 87.359375 59.519531 L 87.359375 56.880859 L 84.960938 56.880859 L 84.960938 48.720703 L 87.119141 48.720703 L 87.119141 46.080078 L 80.400391 46.080078 z M 89.279297 46.080078 L 89.279297 59.519531 L 91.919922 59.519531 L 91.919922 51.599609 L 95.039062 59.519531 L 97.919922 59.519531 L 97.919922 46.080078 L 95.279297 46.080078 L 95.279297 54.240234 L 92.400391 46.080078 L 89.279297 46.080078 z M 14.880859 48.960938 L 14.880859 75.599609 L 70.080078 75.599609 L 70.080078 48.960938 L 14.880859 48.960938 z M 22.080078 55.679688 L 30.480469 55.679688 L 30.480469 58.320312 L 27.599609 58.320312 L 27.599609 68.880859 L 24.960938 68.880859 L 24.960938 58.320312 L 22.080078 58.320312 L 22.080078 55.679688 z M 32.400391 55.679688 L 35.039062 55.679688 L 35.039062 65.039062 C 35.039062 65.039062 35.040939 66.480469 36.960938 66.480469 C 38.880936 66.480469 38.880859 65.039062 38.880859 65.039062 L 38.880859 55.679688 L 41.519531 55.679688 L 41.519531 65.039062 C 41.519531 65.039062 41.520933 69.119141 36.960938 69.119141 C 32.400942 69.119141 32.400391 65.039062 32.400391 65.039062 L 32.400391 55.679688 z M 43.679688 55.679688 L 46.800781 55.679688 L 49.439453 63.119141 L 49.439453 55.679688 L 52.320312 55.679688 L 52.320312 68.880859 L 48.960938 68.880859 L 46.320312 61.439453 L 46.320312 68.880859 L 43.679688 68.880859 L 43.679688 55.679688 z M 54.240234 55.679688 L 61.919922 55.679688 L 61.919922 58.320312 L 57.119141 58.320312 L 57.119141 60.960938 L 61.919922 60.960938 L 61.919922 63.599609 L 57.119141 63.599609 L 57.119141 66.240234 L 62.160156 66.240234 L 62.160156 68.880859 L 54.240234 68.880859 L 54.240234 55.679688 z "
     style="fill:#ffffff;fill-opacity:1" /></svg>
