<?xml version="1.0" encoding="UTF-8" standalone="no"?>
<svg
   version="1.1"
   width="460"
   height="411.10001"
   id="svg3"
   sodipodi:docname="icon_monochrome.svg"
   inkscape:version="1.3.2 (091e20e, 2023-11-25, custom)"
   xmlns:inkscape="http://www.inkscape.org/namespaces/inkscape"
   xmlns:sodipodi="http://sodipodi.sourceforge.net/DTD/sodipodi-0.dtd"
   xmlns="http://www.w3.org/2000/svg"
   xmlns:svg="http://www.w3.org/2000/svg">
  <defs
     id="defs3" />
  <sodipodi:namedview
     id="namedview3"
     pagecolor="#ffffff"
     bordercolor="#000000"
     borderopacity="0.25"
     inkscape:showpageshadow="2"
     inkscape:pageopacity="0.0"
     inkscape:pagecheckerboard="0"
     inkscape:deskcolor="#d1d1d1"
     inkscape:zoom="1.9282609"
     inkscape:cx="230"
     inkscape:cy="205.1071"
     inkscape:window-width="1920"
     inkscape:window-height="1129"
     inkscape:window-x="-8"
     inkscape:window-y="-8"
     inkscape:window-maximized="1"
     inkscape:current-layer="svg3" />
  <path
     d="m 340.3125,123.5625 c 1.57319,1.46779 3.13552,2.94729 4.6875,4.4375 1.33611,1.25877 1.33611,1.25877 2.69922,2.54297 C 363.12708,145.45442 381.12101,168.55458 386,190 c 1.20656,0.0632 2.41312,0.12633 3.65625,0.19141 15.4534,1.08054 15.4534,1.08054 20.96094,7.08203 0.45633,0.56976 0.91265,1.13953 1.38281,1.72656 0.66,0.66 1.32,1.32 2,2 0.66,0.66 1.32,1.32 2,2 0.59555,0.47695 1.19109,0.95391 1.80469,1.44531 11.30358,9.17084 15.84618,22.33662 17.8789,36.4375 1.74308,17.17251 -0.56366,35.8849 -11.12109,50.05469 -2.08704,2.5226 -4.19286,4.70945 -6.75,6.75 -3.0322,2.49315 -4.66385,5.05486 -6.8125,8.3125 -3.75792,3.57698 -6.63439,4.64041 -11.72656,5.42187 -1.27875,0.22172 -2.5575,0.44344 -3.875,0.67188 -2.01706,0.3347 -4.03429,0.65787 -6.05664,0.95898 -7.63392,0.77359 -7.63392,0.77359 -13.77979,4.66553 -0.76421,2.09129 -1.16714,4.09323 -1.56201,6.28174 -0.53133,1.28224 -1.10767,2.54672 -1.72656,3.78906 -0.30487,0.62439 -0.60973,1.24878 -0.92383,1.89209 -17.15729,34.22002 -44.54485,61.21885 -81.28711,73.69385 -3.0042,0.94086 -6.026,1.79513 -9.0625,2.625 -0.72075,0.20883 -1.44149,0.41766 -2.18408,0.63281 C 256.43796,412.92553 229.26433,412.43192 207,406 c -1.10191,-0.29753 -1.10191,-0.29753 -2.22607,-0.60107 C 182.15824,399.19873 162.94049,386.98417 146,371 c -0.79922,-0.72316 -1.59844,-1.44633 -2.42187,-2.19141 C 128.78237,354.88456 115.12294,333.87347 110,314 c 0.36722,-3.14115 1.17607,-4.25076 3.0625,-6.9375 3.93807,-6.70187 2.36278,-15.33333 0.9375,-22.625 -4.91603,-26.82749 -1.24294,-59.5731 14,-82.4375 -0.11441,-1.96208 -0.28977,-3.92086 -0.5,-5.875 -0.0891,-8.94539 4.71373,-13.95612 10.5,-20.125 0.55172,-0.60634 1.10344,-1.21269 1.67188,-1.8374 C 157.89637,154.27061 180.96627,140.11495 207,133 c 0.72075,-0.20883 1.44149,-0.41766 2.18408,-0.63281 C 231.56204,126.07447 258.73567,126.56808 281,133 c 0.7346,0.19835 1.46921,0.39671 2.22607,0.60107 C 305.8166,139.79437 325.10261,151.99479 342,168 c 1.28584,1.20656 1.28584,1.20656 2.59766,2.4375 5.42775,5.23946 10.95019,10.77037 14.40234,17.5625 -1,3 -1,3 -4,5.3125 -2.32367,1.88133 -2.96475,2.5942 -4.0625,5.5 0.1216,6.20172 2.70084,10.70078 6,15.75 13.2005,21.35665 11.56232,54.69616 8.0625,78.4375 -1.02936,7.02232 -1.51086,11.68045 2,18 0.66,0 1.32,0 2,0 -0.47438,-0.495 -0.94875,-0.99 -1.4375,-1.5 -3.65753,-5.85204 -2.5358,-11.59206 -1.10938,-17.95313 5.71147,-26.59912 2.09746,-60.96031 -12.08203,-84.21875 C 352.8474,204.74088 352.15018,203.00363 352,200 c 1.81524,-4.13473 4.19129,-6.61956 8,-9 1.88209,-0.58526 3.78007,-1.1207 5.6875,-1.61719 0.99387,-0.26152 1.98773,-0.52303 3.01172,-0.79248 0.75926,-0.19481 1.51851,-0.38962 2.30078,-0.59033 -8.61165,-17.5928 -18.42548,-32.81947 -32,-47 -0.7425,-0.80566 -1.485,-1.61133 -2.25,-2.44141 -16.55181,-17.39573 -38.84059,-29.77294 -61.8125,-36.30859 -0.69529,-0.19884 -1.39058,-0.39768 -2.10693,-0.60254 C 237.78298,92.216238 201.9533,98.875419 170.69531,116.23438 158.80458,123.09277 148.55134,132.19051 139,142 c -0.4834,0.43828 -0.9668,0.87656 -1.46484,1.32812 C 125.42,154.6166 116.19565,170.22643 109,185 c 0.65227,0.10957 1.30453,0.21914 1.97656,0.33203 6.0575,1.09893 11.51937,2.1639 16.02344,6.66797 1.07853,6.47121 -0.37019,10.20291 -3.75,15.6875 -13.27957,21.56177 -14.59957,56.12659 -9.71094,80.64062 1.09889,6.36983 1.53089,12.37346 -1.22656,18.29688 -3.29103,3.37998 -5.54742,4.26616 -10.22656,4.55469 -5.48381,-0.0559 -10.80059,-1.3165 -16.14844,-2.42969 -1.06283,-0.20496 -2.12566,-0.40992 -3.2207,-0.62109 C 75.52125,306.64575 70.24498,305.36747 66,299 c 0,-0.99 0,-1.98 0,-3 -0.83531,-0.34031 -0.83531,-0.34031 -1.6875,-0.6875 C 54.79471,289.91051 49.14293,278.09097 46.08984,267.98828 41.4073,249.23634 43.13505,229.27786 52,212 c 3.35967,-5.50948 7.6378,-10.35149 13,-14 0.66,0 1.32,0 2,0 0.22688,-0.55688 0.45375,-1.11375 0.6875,-1.6875 2.3178,-4.08375 4.90606,-6.71402 9.25,-8.5625 5.87042,-1.38898 12.06052,-1.43367 18.0625,-1.75 0.0735,-0.64066 0.14695,-1.28133 0.22266,-1.94141 1.10403,-4.34402 3.11982,-8.05031 5.21484,-11.99609 0.44594,-0.84176 0.89187,-1.68352 1.35132,-2.55078 C 105.9355,161.8487 110.67872,154.88483 116,148 c 0.67031,-0.89332 1.34063,-1.78664 2.03125,-2.70703 24.9257,-31.97201 61.4842,-54.905883 102.03516,-59.953126 44.81964,-5.031021 86.40615,8.466845 120.24609,38.222656 z m -72.625,101.25 C 260.127,235.56425 258,247.10409 258,260 c 6.6,0 13.2,0 20,0 0.53625,-2.43375 1.0725,-4.8675 1.625,-7.375 1.9986,-8.3275 4.72262,-15.29728 11.1875,-21.1875 4.11402,-1.85534 7.66255,-2.75393 12.1875,-2.4375 6.61425,2.69054 11.15487,7.11583 14.22656,13.58203 2.35979,6.06924 3.02335,10.66712 3.77344,17.41797 6.93,0 13.86,0 21,0 0,-16.39568 -4.31586,-29.93516 -15.77734,-41.875 -8.65483,-8.27456 -17.08224,-10.65788 -28.91577,-10.54004 -13.09504,0.46804 -21.48745,7.26539 -29.61939,17.22754 z M 157,222 c -8.06097,11.12171 -10.47809,21.45421 -10,35 5.94,0 11.88,0 18,0 0.39188,-2.12437 0.78375,-4.24875 1.1875,-6.4375 1.62501,-7.54525 3.72895,-13.55604 9.3125,-19 3.90595,-2.44122 6.25022,-3.60795 10.9375,-3.4375 5.39179,1.3243 8.94128,3.64166 12.1875,8.125 3.69423,6.26465 4.80052,13.75232 6.375,20.75 5.94,0 11.88,0 18,0 0.6317,-14.31844 -3.42002,-27.69337 -13.23437,-38.4375 -8.65369,-7.65813 -17.6624,-10.07407 -29.01172,-9.86328 C 170.61947,209.51124 163.66493,214.50755 157,222 Z m 15,71 c -2.00351,2.00351 -1.24053,5.89026 -1.25,8.625 0.0659,19.60785 6.29027,37.05048 20.04297,51.22266 C 202.45119,363.78475 218.94518,370.58622 235,371 c 1.01836,0.0503 2.03672,0.10055 3.08594,0.15234 18.38605,0.51647 34.85487,-3.84951 48.97656,-15.96484 4.96554,-4.86876 8.64289,-10.08252 11.9375,-16.1875 0.46019,-0.82758 0.92039,-1.65516 1.39453,-2.50781 C 306.08686,325.24511 308.99691,311.57216 308,299 c -3.00312,0.31227 -3.88586,0.86356 -5.85938,3.22266 -0.6239,0.93714 -1.24781,1.87429 -1.89062,2.83984 -9.81317,13.96975 -23.44112,23.53025 -40.3125,27.1875 -24.29333,4.12015 -47.69912,1.91827 -68.125,-12.5 C 184.08044,312.18976 179.57154,302.6433 175,293 c -0.99,0 -1.98,0 -3,0 z"
     fill="#fefefe"
     id="path1" />
  <path
     d="m 133,8 c 0.0468,13.830156 0.0819,27.660299 0.10362,41.490518 0.0104,6.422052 0.0246,12.844052 0.0473,19.266074 0.0217,6.198603 0.0337,12.397154 0.0389,18.595793 0.004,2.363855 0.0109,4.727707 0.0217,7.091541 0.0145,3.313105 0.0165,6.626004 0.0156,9.939134 0.007,0.97536 0.0144,1.95072 0.0218,2.95564 -0.0196,6.48952 -0.20486,12.07627 -4.37384,17.3488 -9.26694,7.45384 -19.34381,8.36845 -30.875,7.3125 -8.227049,-1.78091 -13.296333,-4.9445 -18,-12 -0.46367,-5.00764 -0.123081,-8.01538 3,-12 7.256736,-6.85358 15.804445,-8.282203 25.41406,-8.152344 7.1467,0.421034 12.57583,2.316104 18.58594,6.152344 1.18339,-8.527994 1.22298,-17.037119 1.31641,-25.628906 0.0206,-1.6014 0.0416,-3.202795 0.063,-4.804184 0.0548,-4.187077 0.10441,-8.3742 0.15285,-12.561356 0.0505,-4.283793 0.10603,-8.567521 0.16113,-12.851257 C 128.80047,41.769587 128.90202,33.384822 129,25 c -0.9169,0.312129 -1.8338,0.624259 -2.77849,0.945847 -8.78271,2.970482 -17.60855,5.705312 -26.522291,8.261184 -1.296622,0.373802 -2.593185,0.747805 -3.889694,1.121994 -2.67902,0.772454 -5.358648,1.542746 -8.038773,2.311356 -3.436418,0.985663 -6.871282,1.976627 -10.305738,2.969106 -2.659631,0.768016 -5.319996,1.533468 -7.980599,2.298111 -1.882758,0.541541 -3.764928,1.085122 -5.647089,1.628733 -1.698987,0.486322 -1.698987,0.486322 -3.432297,0.982468 -0.998444,0.286922 -1.996888,0.573844 -3.025589,0.869461 C 55,47 55,47 53,47 c 0.0089,1.2019 0.01776,2.403799 0.02692,3.64212 0.0811,11.32951 0.141058,22.658961 0.180333,33.988696 0.02087,5.824682 0.04918,11.649129 0.09451,17.473674 0.04348,5.62156 0.06738,11.24288 0.07775,16.86459 0.0074,2.14422 0.02182,4.28842 0.04341,6.43254 0.02906,3.00458 0.03303,6.00823 0.03118,9.01293 0.01438,0.88545 0.02876,1.7709 0.04358,2.68318 C 53.46122,142.56426 52.637877,145.66158 49,150 42.557575,155.63712 32.80211,157.63854 24.35156,157.28516 16.63345,156.34924 8.5047,154.90475 3,149 c -2.41201,-3.87383 -3.36862,-6.66617 -2.5625,-11.125 1.71947,-5.30171 5.10884,-7.59135 9.83984,-10.06641 9.83815,-4.24593 21.08931,-4.44631 31.16016,-0.87109 4.279337,1.77934 4.279337,1.77934 5.5625,3.0625 0.01031,-0.75579 0.02062,-1.51159 0.03123,-2.29028 0.09992,-7.28929 0.202621,-14.57852 0.308104,-21.86773 0.05408,-3.74321 0.107252,-7.486426 0.157975,-11.229685 C 47.781128,73.732466 48.273973,52.869355 49,32 c 7.748783,-3.111563 15.753317,-5.331127 23.769531,-7.632813 1.528461,-0.441427 3.056836,-0.883154 4.585129,-1.325164 4.001067,-1.156409 8.003183,-2.309139 12.005569,-3.460968 5.655475,-1.628317 11.309471,-3.261745 16.963671,-4.894501 3.00672,-0.86823 6.01384,-1.735107 9.02127,-2.600891 1.36907,-0.3946 2.73815,-0.789203 4.10722,-1.183807 1.19499,-0.344029 2.38998,-0.688058 3.62117,-1.0425115 C 129.40543,8 129.40543,8 133,8 Z"
     fill="#ffffff"
     id="path2" />
  <path
     d="m 419,0 c 1.32,0 2.64,0 4,0 0.30937,1.27875 0.61875,2.5575 0.9375,3.875 2.54201,7.543639 8.39596,12.564028 14.00391,17.96875 12.07924,11.678084 21.74001,23.702299 22.52368,41.262451 C 460.62097,72.678325 458.93645,81.901304 456,91 c -0.66,0.66 -1.32,1.32 -2,2 0.0909,-0.60884 0.18176,-1.217681 0.27539,-1.844971 0.41636,-2.821373 0.82052,-5.644373 1.22461,-8.467529 0.14309,-0.957129 0.28617,-1.914258 0.43359,-2.900391 1.76975,-12.51461 2.37549,-24.148408 -4.51953,-35.158203 -2.18067,-2.511984 -4.21735,-3.522728 -7.52734,-3.816406 -5.1143,0.436033 -8.62849,1.502524 -12.26978,5.234802 -6.52038,7.87433 -6.11754,17.415237 -5.9176,27.086693 0.0516,2.522956 0.0773,5.04506 0.0966,7.568459 0.0454,5.349569 0.12244,10.698424 0.2041,16.047546 0.0946,6.21732 0.17605,12.43424 0.22375,18.65211 0.0258,2.4788 0.0758,4.95635 0.12684,7.43474 0.0145,1.5241 0.0279,3.04821 0.04,4.57233 0.0207,0.68272 0.0413,1.36545 0.0626,2.06886 0.002,4.95528 -1.40312,7.68488 -4.45325,11.52196 -8.46783,7.83616 -19.66023,9.59241 -30.82813,9.28516 -9.61822,-0.8647 -18.09202,-3.79733 -24.67187,-11.03516 -1.96409,-4.25552 -2.30402,-7.64138 -1.5,-12.25 3.21634,-6.68999 8.65371,-10.33572 15.5,-12.75 13.36636,-3.99636 26.22366,-2.96736 38.4856,3.64868 0.66475,0.36344 1.3295,0.72687 2.0144,1.10132 0.0561,-11.13103 -0.0739,-22.245101 -0.37039,-33.372171 -0.0694,-2.606987 -0.13582,-5.214034 -0.20163,-7.821112 -0.16387,-6.470829 -0.33202,-12.941545 -0.50086,-19.412247 -0.14324,-5.493261 -0.28438,-10.986569 -0.42276,-16.479955 -0.0645,-2.527537 -0.13187,-5.054983 -0.19943,-7.582438 C 419.01011,22.886156 418.95236,11.449432 419,0 Z"
     fill="#ffffff"
     id="path3" />
</svg>
