<?xml version="1.0" encoding="UTF-8" standalone="no"?>
<svg
   version="1.2"
   viewBox="0 0 1536 1542.4"
   width="240"
   height="241"
   id="svg1"
   sodipodi:docname="icon_monochrome.svg"
   inkscape:version="1.3.2 (091e20e, 2023-11-25, custom)"
   xmlns:inkscape="http://www.inkscape.org/namespaces/inkscape"
   xmlns:sodipodi="http://sodipodi.sourceforge.net/DTD/sodipodi-0.dtd"
   xmlns="http://www.w3.org/2000/svg"
   xmlns:svg="http://www.w3.org/2000/svg"
   xmlns:rdf="http://www.w3.org/1999/02/22-rdf-syntax-ns#"
   xmlns:cc="http://creativecommons.org/ns#"
   xmlns:dc="http://purl.org/dc/elements/1.1/">
  <defs
     id="defs1" />
  <sodipodi:namedview
     id="namedview1"
     pagecolor="#ffffff"
     bordercolor="#000000"
     borderopacity="0.25"
     inkscape:showpageshadow="2"
     inkscape:pageopacity="0.0"
     inkscape:pagecheckerboard="0"
     inkscape:deskcolor="#d1d1d1"
     inkscape:zoom="3.6958256"
     inkscape:cx="120.00025"
     inkscape:cy="109.17723"
     inkscape:window-width="1920"
     inkscape:window-height="1129"
     inkscape:window-x="-8"
     inkscape:window-y="-8"
     inkscape:window-maximized="1"
     inkscape:current-layer="svg1" />
  <title
     id="title1">SIRI_BIG copy-svg</title>
  <style
     id="style1">
		.s0 { fill: #0000eb }
	</style>
  <path
     id="Layer"
     class="s0"
     d="m 1477.8,829.2 c 36.1,54.7 57.3,121 57.3,203.4 -2.5,303.2 -253.7,508.5 -794.6,508.5 -338,0 -709.6,-103 -740.5,-495 v -19.3 H 506.8 L 394.7,1357 764.3,1100.2 1134,1357 1038,1073.1 c -14.8,-28.9 -53.4,-45 -53.4,-45 C 782.4,916.1 45.7,976.6 45.7,481.5 45.7,108.8 437.9,0 745,0 c 321.4,0 698.7,72.7 732.2,459 v 14.8 H 906.7 L 765.6,58.6 624,473.8 H 166.8 L 422.4,649.5 C 497.1,619.9 577,607.1 656.8,598 c 85.7,-9 171.9,-10.9 258.2,-5.1 72.1,4.5 144.3,14.8 215.1,31.5 63.8,14.8 128.8,31.6 186.7,63.1 65.1,36.1 121.7,81.1 161,141.7 z"
     style="fill:#ffffff;fill-opacity:1" />
  <metadata
     id="metadata1">
    <rdf:RDF>
      <cc:Work
         rdf:about="">
        <dc:title>SIRI_BIG copy-svg</dc:title>
      </cc:Work>
    </rdf:RDF>
  </metadata>
</svg>
