<?xml version="1.0" encoding="UTF-8" standalone="no"?>
<svg
   clip-rule="evenodd"
   fill-rule="evenodd"
   stroke-linejoin="round"
   stroke-miterlimit="2"
   version="1.1"
   viewBox="6.4552e-05 0 512 512"
   xml:space="preserve"
   id="svg3"
   sodipodi:docname="icon_monochrome.svg"
   inkscape:version="1.3.2 (091e20e, 2023-11-25, custom)"
   width="512"
   height="512"
   xmlns:inkscape="http://www.inkscape.org/namespaces/inkscape"
   xmlns:sodipodi="http://sodipodi.sourceforge.net/DTD/sodipodi-0.dtd"
   xmlns="http://www.w3.org/2000/svg"
   xmlns:svg="http://www.w3.org/2000/svg"><defs
   id="defs3">
        
    
        
    </defs><sodipodi:namedview
   id="namedview3"
   pagecolor="#ffffff"
   bordercolor="#000000"
   borderopacity="0.25"
   inkscape:showpageshadow="2"
   inkscape:pageopacity="0.0"
   inkscape:pagecheckerboard="0"
   inkscape:deskcolor="#d1d1d1"
   inkscape:zoom="1.774"
   inkscape:cx="250"
   inkscape:cy="250"
   inkscape:window-width="1920"
   inkscape:window-height="1129"
   inkscape:window-x="-8"
   inkscape:window-y="-8"
   inkscape:window-maximized="1"
   inkscape:current-layer="svg3" />
    
    <path
   id="path2"
   style="fill:#ffffff;fill-opacity:1;stroke-width:0.494406"
   d="M 113.90891,0 C 51.005676,0 0.0117833,50.993888 0.0117833,113.89712 v 278.40839 c 0,62.90323 50.9938927,113.89712 113.8971267,113.89712 h 278.40838 c 62.90323,0 113.89713,-50.99389 113.89713,-113.89712 V 113.89712 C 506.21442,50.993888 455.22052,0 392.31729,0 Z m 44.59114,213.10257 c 22.22452,0 40.30622,17.89289 40.30622,39.889 0,21.99018 -18.0817,39.88505 -40.30622,39.88505 -22.22651,0 -40.31414,-17.89487 -40.31414,-39.88505 0,-21.99611 18.08763,-39.889 40.31414,-39.889 z m -83.404473,0.0118 c 15.530765,0 24.457744,10.29302 24.833492,10.73304 l 1.263521,1.48696 -11.607019,7.7591 -1.00647,-0.74546 c -1.877258,-1.38828 -6.953909,-4.61314 -13.483524,-4.61314 -7.748821,0 -12.378188,4.25171 -12.378188,8.36021 0,1.75118 -10e-4,5.38961 14.59677,9.98165 7.501124,2.35535 12.533371,4.69085 16.356609,7.5772 5.698025,4.29737 8.587612,9.80572 8.587612,16.35067 0,6.10196 -2.854095,12.05232 -7.832265,16.32892 -5.00042,4.28353 -11.860069,6.64982 -19.324606,6.64982 -15.532249,0 -24.458734,-10.29895 -24.82756,-10.73106 l -1.269457,-1.48696 11.612956,-7.75713 1.006468,0.7415 c 1.868854,1.38631 6.934628,4.61117 13.477593,4.61117 7.74882,0 12.382143,-4.24578 12.382143,-8.35626 0,-1.7502 10e-4,-5.39158 -14.594794,-9.98165 -7.504582,-2.35831 -12.534852,-4.69085 -16.358586,-7.57718 -5.700002,-4.29738 -8.593546,-9.8008 -8.593546,-16.35069 0,-6.10294 2.856075,-12.0533 7.836223,-16.32892 4.996463,-4.28946 11.856607,-6.65179 19.322628,-6.65179 z m 356.021203,0.176 c 15.52929,0 24.45972,10.29895 24.82756,10.73304 l 1.2655,1.48894 -11.60702,7.76109 -1.00845,-0.74745 c -1.87479,-1.38432 -6.93264,-4.60919 -13.47759,-4.60919 -7.75227,0 -12.3861,4.24677 -12.3861,8.35429 0,1.75218 -7e-5,5.39059 14.59875,9.98165 7.50606,2.35436 12.53782,4.69085 16.36057,7.57718 5.69852,4.29838 8.58365,9.80476 8.58365,16.35068 0,6.10493 -2.85261,12.05332 -7.83227,16.32695 -4.99547,4.29144 -11.85611,6.65377 -19.3246,6.65377 -15.53027,0 -24.45379,-10.29301 -24.82558,-10.73106 l -1.26946,-1.49091 11.61097,-7.75318 1.00647,0.73952 c 1.8748,1.3883 6.95046,4.61514 13.4776,4.61514 7.75129,0 12.3861,-4.25072 12.3861,-8.36023 0,-1.75019 -9.3e-4,-5.39158 -14.59875,-9.97571 -7.50706,-2.36227 -12.53584,-4.69481 -16.36056,-7.58114 -5.69853,-4.30035 -8.57971,-9.80178 -8.57971,-16.35266 0,-6.09601 2.85064,-12.04935 7.82831,-16.32892 4.99944,-4.28946 11.85909,-6.6518 19.32461,-6.6518 z m -83.40249,0.10876 c 22.23243,0 40.31611,17.89389 40.31611,39.88702 0,21.99316 -18.08368,39.88703 -40.31611,39.88703 -22.22157,0 -40.30425,-17.89387 -40.30425,-39.88703 0,-21.99313 18.08268,-39.88702 40.30425,-39.88702 z m -126.10131,0.60506 48.59329,44.82645 V 216.1338 h 14.40101 v 76.19308 l -48.59526,-44.75921 v 42.4378 h -14.39904 z m -63.11293,13.44002 c -14.09651,0 -25.5572,11.4617 -25.5572,25.55326 0,14.08957 11.46069,25.55126 25.5572,25.55126 14.0945,0 25.56313,-11.46169 25.56313,-25.55126 0,-14.09156 -11.46863,-25.55326 -25.56313,-25.55326 z m 189.21226,0.29463 c -14.09353,0 -25.55324,11.46072 -25.55324,25.54731 0,14.08761 11.45971,25.55325 25.55324,25.55325 14.09354,0 25.56116,-11.46564 25.56116,-25.55325 0,-14.08659 -11.46762,-25.54731 -25.56116,-25.54731 z" />
    
</svg>
