<?xml version="1.0" encoding="UTF-8" standalone="no"?>
<svg
   viewBox="0 0 22 20"
   fill="none"
   version="1.1"
   id="svg1"
   sodipodi:docname="icon_monochrome.svg"
   inkscape:version="1.3.2 (091e20e, 2023-11-25, custom)"
   width="22"
   height="20"
   xmlns:inkscape="http://www.inkscape.org/namespaces/inkscape"
   xmlns:sodipodi="http://sodipodi.sourceforge.net/DTD/sodipodi-0.dtd"
   xmlns="http://www.w3.org/2000/svg"
   xmlns:svg="http://www.w3.org/2000/svg">
  <defs
     id="defs1" />
  <sodipodi:namedview
     id="namedview1"
     pagecolor="#ffffff"
     bordercolor="#000000"
     borderopacity="0.25"
     inkscape:showpageshadow="2"
     inkscape:pageopacity="0.0"
     inkscape:pagecheckerboard="0"
     inkscape:deskcolor="#d1d1d1"
     inkscape:zoom="37.125"
     inkscape:cx="12"
     inkscape:cy="12"
     inkscape:window-width="1920"
     inkscape:window-height="1129"
     inkscape:window-x="-8"
     inkscape:window-y="-8"
     inkscape:window-maximized="1"
     inkscape:current-layer="svg1" />
  <path
     d="m 9.1665004,19.902196 c -2.32174,-0.3644 -4.60298,-1.482 -6.15802,-3.0168 -0.53279,-0.5259 -0.56921,-0.5778 -0.55206,-0.7878 0.03186,-0.3901 -0.02629,-0.3838 3.53229,-0.3836 3.54259,0 3.70939,0.0147 4.4403896,0.3865 0.3054,0.1554 0.5664,0.3742 1.0824,0.9077 0.9405,0.9722 1.4792,1.2188 2.511,1.1494 0.6161,-0.0414 1.0915,-0.2238 1.5774,-0.605 1.5254,-1.197 1.5254,-3.6208 0,-4.8178 -0.522,-0.4096 -0.9576,-0.5678 -1.6667,-0.6051 -1.0011,-0.0528 -1.5596,0.2169 -2.4752,1.1952 -0.4089,0.4369 -0.6595,0.6459 -0.9776,0.8152 -0.7779996,0.4142 -0.6530996,0.4037 -4.8277996,0.4037 h -3.78894 l -0.33611,-0.1642 c -0.41963,-0.2051 -0.63658,-0.4294 -0.86242,-0.8916 C 0.2120804,12.560596 3.7039639e-4,11.476796 3.9639118e-7,10.082796 -3.9060361e-4,8.6390962 0.2885104,7.1797562 0.7317904,6.3861962 c 0.2068,-0.37022 0.60279,-0.68526 1.02723,-0.81725 0.42214,-0.13126 7.39958,-0.12338 7.94288,0.00898 0.6868996,0.16734 1.0848996,0.42719 1.7868996,1.16661 0.5043,0.53128 0.7279,0.71824 1.0446,0.87376 1.174,0.5765 2.4314,0.34993 3.3506,-0.60373 0.6612,-0.68589 0.9008,-1.35847 0.845,-2.37101 -0.0274,-0.4955 -0.0602,-0.62172 -0.2822,-1.08467 -0.6753,-1.40801 -2.2231,-2.06402 -3.6136,-1.53155 -0.5233,0.20039 -0.7779,0.39332 -1.4361,1.08811 -0.6393,0.6748 -1.0638,0.95231 -1.6822996,1.09955 -0.1694,0.04035 -1.55097,0.06565 -3.6361,0.06661 -3.73308,0.00171 -3.63412,0.01252 -3.63482,-0.39668 -2.9e-4,-0.17038 0.07856,-0.27992 0.50873,-0.70677 1.21111,-1.20176 2.92007,-2.19863 4.65154,-2.71334 1.04486,-0.3106 1.81735,-0.4238 3.1207496,-0.45729 1.3884,-0.03568 2.2028,0.05081 3.3945,0.3605 3.4199,0.88879 6.1739,3.23951 7.3607,6.28297 0.2475,0.63474 0.5199,1.6506 0.5199,1.939 0,0.3249 -0.1799,0.6227 -0.4537,0.7512 -0.2356,0.1106 -0.5084,0.1169 -5.0464,0.1172 -5.2802,3e-4 -5.2826,2e-4 -6.05,-0.386 -0.3041,-0.1531 -0.5480996,-0.3585 -1.0408996,-0.8764 -0.66945,-0.70361 -1.02498,-0.94797 -1.61749,-1.11175 -0.40966,-0.11324 -1.08435,-0.10793 -1.53023,0.01204 -1.38871,0.37363 -2.35623,1.92291 -2.11743,3.3906098 0.2891,1.7768 1.97906,2.9248 3.64552,2.4763 0.59455,-0.16 0.93868,-0.3966 1.62163,-1.1147 0.5084,-0.5345 0.7252996,-0.7151 1.0442996,-0.8693 0.7858,-0.38 0.7776,-0.3795 6.0752,-0.3806 5.4361,-0.0011 5.139,-0.027 5.373,0.4684 0.1055,0.2233 0.1103,0.292 0.0466,0.6758 -0.1789,1.0778 -0.8184,2.5948 -1.5159,3.5956 -1.6878,2.4221 -4.4717,4.1076 -7.5477,4.5697 -0.8329,0.1251 -2.9059996,0.1218 -3.7199996,-0.0059 z"
     fill="#4AAA42"
     id="path1"
     style="fill:#ffffff;fill-opacity:1" />
</svg>
