<?xml version="1.0" encoding="UTF-8" standalone="no"?>
<svg
   version="1.1"
   width="251.19"
   height="503.466"
   id="svg1"
   sodipodi:docname="icon_monochrome.svg"
   inkscape:version="1.3.2 (091e20e, 2023-11-25, custom)"
   xmlns:inkscape="http://www.inkscape.org/namespaces/inkscape"
   xmlns:sodipodi="http://sodipodi.sourceforge.net/DTD/sodipodi-0.dtd"
   xmlns="http://www.w3.org/2000/svg"
   xmlns:svg="http://www.w3.org/2000/svg">
  <defs
     id="defs1" />
  <sodipodi:namedview
     id="namedview1"
     pagecolor="#ffffff"
     bordercolor="#000000"
     borderopacity="0.25"
     inkscape:showpageshadow="2"
     inkscape:pageopacity="0.0"
     inkscape:pagecheckerboard="0"
     inkscape:deskcolor="#d1d1d1"
     inkscape:zoom="1.7324219"
     inkscape:cx="256"
     inkscape:cy="256"
     inkscape:window-width="1920"
     inkscape:window-height="1129"
     inkscape:window-x="-8"
     inkscape:window-y="-8"
     inkscape:window-maximized="1"
     inkscape:current-layer="svg1" />
  <path
     d="m 245.79672,7.3999419 c 6.66891,6.8356291 5.31517,15.1269291 5.21485,24.0703121 -0.32236,12.433873 -1.87252,33.701016 -11.21485,42.929688 -1.98047,0.3125 -1.98047,0.3125 -4.1875,0 -0.71543,-0.0825 -1.43086,-0.165 -2.16797,-0.25 -3.06268,-0.86859 -5.64593,-2.198735 -8.46557,-3.658203 -3.65912,-1.833455 -7.4375,-3.338282 -11.24146,-4.841797 -0.76377,-0.31582 -1.52754,-0.631641 -2.31445,-0.957031 -6.78381,-2.681026 -11.79531,-3.056577 -18.62305,-0.292969 -8.15394,1.423027 -8.15394,1.423027 -11,0 -1.85106,-0.124174 -3.70732,-0.175653 -5.5625,-0.1875 -0.99129,-0.01418 -1.98258,-0.02836 -3.0039,-0.04297 -3.5134,0.235826 -6.69071,0.872811 -10.10669,1.684326 -2.23321,0.524153 -4.46846,0.975383 -6.72144,1.405518 -8.46271,1.678952 -15.73069,3.65464 -23.32031,7.871094 -2.28516,1.269532 -2.28516,1.269532 -5.28516,2.269532 -1.11374,2.308411 -1.11374,2.308411 -2,5 -0.73366,1.606603 -1.48157,3.20676 -2.24218,4.800781 -0.42668,0.895254 -0.85336,1.790508 -1.29297,2.712891 -0.44215,0.923613 -0.8843,1.847226 -1.33985,2.798828 -0.65162,1.368018 -0.65162,1.368018 -1.3164,2.763672 -1.97172,4.129938 -3.96453,8.239296 -6.0625,12.306636 -1.36461,2.71305 -2.31035,5.16156 -2.8086,8.17969 -0.47306,2.81177 -1.14973,4.90441 -2.34375,7.53125 -2.10669,4.76348 -3.00351,9.75931 -4.03125,14.84375 -1.35426,6.58892 -2.80714,13.13368 -4.468747,19.65234 -1.490055,5.85642 -2.854197,11.72972 -4.128906,17.63672 -0.250877,1.15796 -0.250877,1.15796 -0.506821,2.33931 -0.682949,3.15877 -1.36346,6.31799 -2.033462,9.47954 -0.50014,2.35368 -1.010396,4.70499 -1.522217,7.05615 -0.220438,1.05945 -0.220438,1.05945 -0.445328,2.14029 -0.947423,4.30865 -2.443981,7.85267 -4.457016,11.75815 -0.470142,3.55239 -0.470142,3.55239 -0.375,7.1875 -0.0077,1.21043 -0.01547,2.42086 -0.02344,3.66797 0.126578,3.07304 0.126578,3.07304 1.671875,4.84717 2.186591,1.64303 3.071458,1.56691 5.75,1.1997 5.413361,-0.80729 10.456392,-2.51975 15.601562,-4.33984 8.21364,-2.84544 16.08208,-5.52534 24.75,-6.625 4.13664,-0.18833 4.13664,-0.18833 7.625,-1.9375 1.17563,-0.10313 2.35125,-0.20625 3.5625,-0.3125 7.90603,-0.77785 15.71355,-3.04861 23.33472,-5.23071 2.47116,-0.53681 4.79344,-0.63627 7.32153,-0.70288 1.00853,-0.0317 2.01706,-0.0633 3.05616,-0.0959 1.59642,-0.0472 1.59642,-0.0472 3.22509,-0.0955 9.48952,-0.29174 9.48952,-0.29174 18.875,-1.625 13.90699,-2.70755 29.74894,-2.25233 41.90625,5.58594 5.42164,4.65768 5.42164,4.65768 6.05127,8.5122 0.0997,2.45882 0.0668,4.88005 -0.02,7.33936 -0.0198,0.88687 -0.0396,1.77375 -0.0601,2.6875 -0.0457,1.79943 -0.10127,3.59865 -0.16699,5.39746 -0.0759,2.25741 -0.10352,4.50817 -0.11279,6.7666 -0.24686,9.53868 -2.68513,16.75492 -8.23047,24.53906 -4.19416,2.97165 -9.03081,2.31826 -13.84375,1.52735 -1.84344,-0.35684 -3.68461,-0.7256 -5.52344,-1.10547 -1.39218,-0.2678 -1.39218,-0.2678 -2.8125,-0.54102 -4.41178,-0.8754 -8.40747,-1.9036 -12.5625,-3.64648 -12.70046,-3.43445 -23.23023,-2.66083 -36,0 -4.19435,0.8098 -8.0418,1.08343 -12.3125,1 -7.88288,-0.0536 -15.12179,0.82636 -22.8125,2.47266 -3.48636,0.63948 -6.97782,1.00749 -10.5,1.40234 -6.02002,0.7601 -10.19117,2.03464 -15.375,5.125 -4.46124,1.48708 -9.009468,0.96785 -13.664062,0.78516 -4.621618,-0.0889 -7.638877,0.12275 -11.335937,3.21484 -6.519846,8.74537 -8.236482,20.15129 -10.40918,30.58154 -0.59082,2.41846 -0.59082,2.41846 -1.65039,5.31617 -1.017691,3.35716 -1.140296,5.99815 -1.06543,9.49682 0.0232,1.80501 0.0232,1.80501 0.04687,3.64649 0.05184,2.5026 0.103922,5.00521 0.15625,7.50781 0.08767,6.84152 -0.288066,12.85688 -2.078125,19.45117 -1.601224,8.37183 -2.065857,16.36403 -1.893723,24.84418 0.04483,5.52545 -0.537417,10.69492 -1.512527,16.12457 -1.555193,9.26339 -2.479075,18.48009 -3.15625,27.84375 -0.06164,0.80513 -0.123287,1.61026 -0.186798,2.43979 -0.794073,10.37863 -1.367038,20.75177 -1.74289,31.15396 -0.03869,1.03558 -0.07737,2.07115 -0.117233,3.13811 -0.186612,5.06602 -0.351527,10.13124 -0.480667,15.19905 -0.526866,17.19974 -0.526866,17.19974 -4.909912,25.25659 -0.37125,1.01062 -0.7425,2.02125 -1.125,3.0625 -2.753504,2.84529 -5.385403,2.81846 -9.246094,3.00391 -5.810115,-0.14677 -10.886755,-1.29499 -15.308594,-5.39063 -4.656802,-5.9106 -5.710944,-12.38349 -5.320285,-19.67579 -0.33,-0.66 -0.66,-1.32 -1,-2 -0.145313,-2.40459 -0.23451,-4.7845 -0.28125,-7.19141 -0.01818,-0.7285 -0.03637,-1.45701 -0.0551,-2.20759 -0.05894,-2.38775 -0.111499,-4.77559 -0.16365,-7.1635 -0.07674,-3.30606 -0.15659,-6.61203 -0.238281,-9.91797 -0.02005,-0.82147 -0.04009,-1.64295 -0.06075,-2.48932 -0.149146,-5.80014 -0.414536,-11.58787 -0.728561,-17.38153 -0.507603,-9.59795 -0.289376,-18.77126 0.758545,-28.32373 0.754038,-7.14137 0.965673,-14.20777 0.956543,-21.38745 5.64e-4,-0.99838 0.0011,-1.99676 0.0017,-3.02539 -0.03688,-5.11767 -0.296987,-10.12139 -0.818115,-15.21289 -0.616868,-7.44628 0.368216,-14.46856 1.503906,-21.82422 0.186914,-1.29938 0.373828,-2.59875 0.566406,-3.9375 1.376442,-9.39105 1.376442,-9.39105 2.558594,-12.9375 0.09318,-1.41421 0.129955,-2.83273 0.125,-4.25 0.0026,-0.72703 0.0052,-1.45406 0.0078,-2.20313 -0.0869,-2.67448 -0.0869,-2.67448 -0.707031,-5.77734 -0.589872,-5.22226 0.213792,-10.01641 0.990235,-15.18555 0.634617,-4.77377 0.554948,-8.0384 -1.416016,-12.58398 -5.840302,-1.52356 -9.041226,-0.41125 -14.488281,2.00781 -3.5251477,1.39253 -6.746357,1.71328 -10.51169403,1.99219 -0.84632514,-2.87345 -1.23129878,-4.44159 -0.0664063,-7.25391 0.74443363,-1.14275 0.74443363,-1.14275 1.50390633,-2.30859 0.846914,-1.30131 0.846914,-1.30131 1.7109375,-2.62891 0.6110156,-0.92683 1.2220312,-1.85367 1.8515625,-2.80859 0.8546484,-1.4676 0.8546484,-1.4676 1.7265625,-2.96484 4.0829925,-6.74997 8.4180605,-11.03339 14.6833495,-15.60425 8.798398,-6.43833 10.855245,-12.80615 12.590088,-23.43091 1.174256,-9.13365 1.909571,-18.32561 2.726807,-27.49658 2.674029,-29.66803 2.674029,-29.66803 7.384277,-41.23096 1.622539,-4.14792 1.275292,-8.11333 -0.111084,-12.27246 -1.413023,-23.49496 6.859539,-48.63103 18,-68.999998 0.470508,-0.867539 0.941016,-1.735078 1.425781,-2.628906 7.100502,-12.37875 15.84573,-23.891341 25.199219,-34.636719 1.531077,-1.762754 3.025621,-3.558253 4.472656,-5.390625 C 108.13199,20.202486 134.64305,7.9619929 156.4725,3.6304106 c 4.4206,-0.4383447 8.84934,-0.314262 13.28516,-0.203125 3.08555,0.1280936 3.08555,0.1280936 6.03906,-1.0273437 1.49774,-0.092252 2.99943,-0.1300019 4.5,-0.125 0.77344,-0.00258 1.54688,-0.00516 2.34375,-0.00781 2.15625,0.13281 2.15625,0.13281 5.15625,1.13281 4.6925,0.4080429 8.44221,-0.312958 13,-1.5 14.36691,-3.4559581 32.13227,-2.52107722 45,5.5 z"
     fill="#ffffff"
     id="path1" />
</svg>
